<?xml version="1.0" encoding="UTF-8" standalone="no"?>
<!DOCTYPE svg PUBLIC "-//W3C//DTD SVG 1.1//EN" "http://www.w3.org/Graphics/SVG/1.1/DTD/svg11.dtd">
<svg width="100%" height="100%" viewBox="0 0 4795 991" version="1.1" xmlns="http://www.w3.org/2000/svg" xmlns:xlink="http://www.w3.org/1999/xlink" xml:space="preserve" xmlns:serif="http://www.serif.com/" style="fill-rule:evenodd;clip-rule:evenodd;stroke-linejoin:round;stroke-miterlimit:2;">
    <g transform="matrix(18.177287,0,0,18.177287,-31848.848473,-26602.363741)">
        <g transform="matrix(1,0,0,1,1754.075,1507.29)">
            <text x="0px" y="0px" style="font-family:'Belanosima-SemiBold', 'Belanosima', sans-serif;font-weight:600;font-size:57.534px;fill:rgb(59,162,255);">Harmonio</text>
        </g>
    </g>
    <g transform="matrix(2.675708,2.425791,1.458789,-1.60908,-3261.393244,116.106148)">
        <g transform="matrix(0.913625,0,0,0.913625,1603.651438,2223.139319)">
            <text x="0px" y="0px" style="font-family:'Belanosima-SemiBold', 'Belanosima', sans-serif;font-weight:600;font-size:724.213px;fill:rgb(59,162,255);">,</text>
        </g>
    </g>
    <g transform="matrix(1.896994,0,0,1.896994,-1974.956518,-3940.244101)">
        <g transform="matrix(1,0,0,1,1946.22,2544.922)">
            <text x="0px" y="0px" style="font-family:'Belanosima-SemiBold', 'Belanosima', sans-serif;font-weight:600;font-size:724.213px;fill:rgb(59,162,255);">.</text>
        </g>
    </g>
    <g transform="matrix(1.896994,0,0,1.896994,-1652.868376,-3940.244101)">
        <g transform="matrix(1,0,0,1,1946.22,2544.922)">
            <text x="0px" y="0px" style="font-family:'Belanosima-SemiBold', 'Belanosima', sans-serif;font-weight:600;font-size:724.213px;fill:rgb(59,162,255);">.</text>
        </g>
    </g>
    <g transform="matrix(1.896994,0,0,1.896994,-1652.868376,-3940.244101)">
        <g transform="matrix(1,0,0,1,1946.22,2544.922)">
            <text x="0px" y="0px" style="font-family:'Belanosima-SemiBold', 'Belanosima', sans-serif;font-weight:600;font-size:724.213px;fill:rgb(59,162,255);">.</text>
        </g>
    </g>
    <g transform="matrix(1.896994,0,0,1.896994,-1326.115111,-3940.244101)">
        <g transform="matrix(1,0,0,1,1946.22,2544.922)">
            <text x="0px" y="0px" style="font-family:'Belanosima-SemiBold', 'Belanosima', sans-serif;font-weight:600;font-size:724.213px;fill:rgb(59,162,255);">.</text>
        </g>
    </g>
    <g transform="matrix(1.896994,0,0,1.896994,-508.525195,-3940.244101)">
        <g transform="matrix(1,0,0,1,1946.22,2544.922)">
            <text x="0px" y="0px" style="font-family:'Belanosima-SemiBold', 'Belanosima', sans-serif;font-weight:600;font-size:724.213px;fill:rgb(59,162,255);">.</text>
        </g>
    </g>
    <g transform="matrix(1.896994,0,0,1.896994,-182.84502,-3940.244101)">
        <g transform="matrix(1,0,0,1,1946.22,2544.922)">
            <text x="0px" y="0px" style="font-family:'Belanosima-SemiBold', 'Belanosima', sans-serif;font-weight:600;font-size:724.213px;fill:rgb(59,162,255);">.</text>
        </g>
    </g>
</svg>
